<svg width="63" height="111" viewBox="0 0 63 111" fill="none" xmlns="http://www.w3.org/2000/svg">
<path fill-rule="evenodd" clip-rule="evenodd" d="M0 31.3991C0 14.0579 14.103 0 31.5 0C48.8971 0 63 14.0578 63 31.3991V79.6009C63 96.942 48.8971 111 31.5 111C14.103 111 0 96.942 0 79.6009V31.3991ZM30.3887 26.1944L31.5108 15.8251L32.7839 26.1944C32.7839 26.1944 32.9717 26.584 33.1939 26.7633C33.4346 26.9575 33.9492 27.0936 33.9492 27.0936L42.84 28.0848L33.6687 29.1308C33.6687 29.1308 33.356 29.383 33.1939 29.5714C32.9956 29.8015 32.7839 30.2137 32.7839 30.2137L31.5108 44.7123L30.3239 30.2137C30.3239 30.2137 30.1528 29.7952 29.957 29.5714C29.7829 29.372 29.4175 29.1308 29.4175 29.1308L20.16 28.0479L29.2449 27.0936C29.2449 27.0936 29.7254 26.9472 29.957 26.7633C30.1843 26.583 30.3887 26.1944 30.3887 26.1944ZM31.4892 90.9317L32.6113 80.5625C32.6113 80.5625 32.8157 80.1739 33.043 79.9935C33.2746 79.8097 33.7551 79.6632 33.7551 79.6632L42.84 78.7089L33.5825 77.626C33.5825 77.626 33.2171 77.3849 33.043 77.1855C32.8472 76.9616 32.6761 76.5432 32.6761 76.5432L31.4892 62.0446L30.2161 76.5432C30.2161 76.5432 30.0044 76.9554 29.8061 77.1855C29.644 77.3739 29.3313 77.626 29.3313 77.626L20.16 78.672L29.0508 79.6632C29.0508 79.6632 29.5654 79.7994 29.8061 79.9935C30.0283 80.1729 30.2161 80.5625 30.2161 80.5625L31.4892 90.9317ZM31.374 10.5501C19.6509 10.5501 10.08 20.1845 10.08 32.1527H5.04C5.04 17.4847 16.7929 5.52624 31.374 5.52624C45.9552 5.52624 57.708 17.4847 57.708 32.1527H52.668C52.668 20.1845 43.097 10.5501 31.374 10.5501ZM52.668 78.8745C52.668 90.8428 43.097 100.477 31.374 100.477C19.6509 100.477 10.08 90.8428 10.08 78.8745H5.04C5.04 93.5424 16.7929 105.501 31.374 105.501C45.9552 105.501 57.708 93.5424 57.708 78.8745H52.668Z" fill="white" style="mix-blend-mode:darken"/>
</svg>
